<svg width="201" height="70" viewBox="0 0 201 70" fill="none" xmlns="http://www.w3.org/2000/svg">
<path d="M196.55 37.5549H201V32.4445H196.55V37.5549ZM0 37.5549H4.44982V32.4445H0V37.5549ZM6.77796 50.4932H11.2281V45.3795H6.77796V50.4932ZM6.77796 44.0227H11.2281V38.9123H6.77796V44.0227ZM6.77796 37.5549H11.2281V32.4445H6.77796V37.5549ZM6.77796 24.6208H11.2281V19.5065H6.77796V24.6208ZM6.77796 31.0877H11.2281V25.9737H6.77796V31.0877ZM13.5556 44.0227H18.0051V38.9123H13.5556V44.0227ZM13.5556 37.5549H18.0051V32.4445H13.5556V37.5549ZM13.5556 31.0877H18.0051V25.9737H13.5556V31.0877ZM20.333 50.4932H24.7837V45.3795H20.333V50.4932ZM20.333 44.0227H24.7837V38.9123H20.333V44.0227ZM20.333 37.5549H24.7837V32.4445H20.333V37.5549ZM20.333 31.0877H24.7837V25.9737H20.333V31.0877ZM20.333 24.6208H24.7837V19.5065H20.333V24.6208ZM27.1101 50.4932H31.5605V45.3795H27.1101V50.4932ZM27.1101 44.0227H31.5605V38.9123H27.1101V44.0227ZM27.1101 37.5549H31.5605V32.4445H27.1101V37.5549ZM27.1101 31.0877H31.5605V25.9737H27.1101V31.0877ZM27.1101 24.6208H31.5605V19.5065H27.1101V24.6208ZM20.333 56.961H24.7837V51.847H20.333V56.961ZM20.333 18.153H24.7837V13.039H20.333V18.153ZM33.888 69.8951H38.3384V64.7846H33.888V69.8951ZM33.888 63.4279H38.3384V58.3141H33.888V63.4279ZM33.888 56.961H38.3384V51.847H33.888V56.961ZM33.888 50.4932H38.3384V45.3795H33.888V50.4932ZM33.888 44.0227H38.3384V38.9123H33.888V44.0227ZM33.888 37.5549H38.3384V32.4445H33.888V37.5549ZM33.888 31.0877H38.3384V25.9737H33.888V31.0877ZM33.888 24.6208H38.3384V19.5065H33.888V24.6208ZM33.888 18.153H38.3384V13.039H33.888V18.153ZM33.888 11.6826H38.3384V6.57211H33.888V11.6826ZM33.888 5.21537H38.3384V0.104919H33.888V5.21537ZM40.6657 50.4932H45.1155V45.3795H40.6657V50.4932ZM40.6657 44.0227H45.1155V38.9123H40.6657V44.0227ZM40.6657 37.5549H45.1155V32.4445H40.6657V37.5549ZM40.6657 31.0877H45.1155V25.9737H40.6657V31.0877ZM40.6657 24.6208H45.1155V19.5065H40.6657V24.6208ZM47.4436 56.961H51.8932V51.847H47.4436V56.961ZM47.4436 50.4932H51.8932V45.3795H47.4436V50.4932ZM47.4436 44.0227H51.8932V38.9123H47.4436V44.0227ZM47.4436 37.5549H51.8932V32.4445H47.4436V37.5549ZM47.4436 31.0877H51.8932V25.9737H47.4436V31.0877ZM47.4436 24.6208H51.8932V19.5065H47.4436V24.6208ZM47.4436 18.153H51.8932V13.039H47.4436V18.153ZM54.2216 44.0227H58.6711V38.9123H54.2216V44.0227ZM54.2216 37.5549H58.6711V32.4445H54.2216V37.5549ZM54.2216 31.0877H58.6711V25.9737H54.2216V31.0877ZM60.9993 44.0227H65.4488V38.9123H60.9993V44.0227ZM60.9993 37.5549H65.4488V32.4445H60.9993V37.5549ZM60.9993 31.0877H65.4488V25.9737H60.9993V31.0877ZM60.9993 50.4932H65.4488V45.3795H60.9993V50.4932ZM67.7749 44.0227H72.2247V38.9123H67.7749V44.0227ZM67.7749 37.5549H72.2247V32.4445H67.7749V37.5549ZM67.7749 31.0877H72.2247V25.9737H67.7749V31.0877ZM60.9993 24.6208H65.4488V19.5065H60.9993V24.6208ZM74.5537 63.4279H79.0038V58.3141H74.5537V63.4279ZM74.5537 56.961H79.0038V51.847H74.5537V56.961ZM74.5537 50.4932H79.0038V45.3795H74.5537V50.4932ZM74.5537 44.0227H79.0038V38.9123H74.5537V44.0227ZM74.5537 37.5549H79.0038V32.4445H74.5537V37.5549ZM74.5537 31.0877H79.0038V25.9737H74.5537V31.0877ZM74.5537 24.6208H79.0038V19.5065H74.5537V24.6208ZM74.5537 18.153H79.0038V13.039H74.5537V18.153ZM74.5537 11.6826H79.0038V6.57211H74.5537V11.6826ZM81.3332 44.0227H85.7833V38.9123H81.3332V44.0227ZM81.3332 37.5549H85.7833V32.4445H81.3332V37.5549ZM81.3332 31.0877H85.7833V25.9737H81.3332V31.0877ZM88.1087 50.4932H92.5586V45.3795H88.1087V50.4932ZM88.1087 44.0227H92.5586V38.9123H88.1087V44.0227ZM88.1087 37.5549H92.5586V32.4445H88.1087V37.5549ZM88.1087 31.0877H92.5586V25.9737H88.1087V31.0877ZM88.1087 24.6208H92.5586V19.5065H88.1087V24.6208ZM94.8873 44.0227H99.3374V38.9123H94.8873V44.0227ZM94.8873 37.5549H99.3374V32.4445H94.8873V37.5549ZM94.8873 31.0877H99.3374V25.9737H94.8873V31.0877ZM101.663 44.0227H106.113V38.9123H101.663V44.0227ZM101.663 37.5549H106.113V32.4445H101.663V37.5549ZM101.663 31.0877H106.113V25.9737H101.663V31.0877ZM108.442 44.0227H112.892V38.9123H108.442V44.0227ZM108.442 37.5549H112.892V32.4445H108.442V37.5549ZM108.442 31.0877H112.892V25.9737H108.442V31.0877ZM101.663 50.4932H106.113V45.3795H101.663V50.4932ZM101.663 24.6208H106.113V19.5065H101.663V24.6208ZM115.221 50.4932H119.671V45.3795H115.221V50.4932ZM115.221 44.0227H119.671V38.9123H115.221V44.0227ZM115.221 37.5549H119.671V32.4445H115.221V37.5549ZM115.221 31.0877H119.671V25.9737H115.221V31.0877ZM115.221 24.6208H119.671V19.5065H115.221V24.6208ZM121.997 63.4279H126.447V58.3141H121.997V63.4279ZM121.997 56.961H126.447V51.847H121.997V56.961ZM121.997 50.4932H126.447V45.3795H121.997V50.4932ZM121.997 44.0227H126.447V38.9123H121.997V44.0227ZM121.997 37.5549H126.447V32.4445H121.997V37.5549ZM121.997 31.0877H126.447V25.9737H121.997V31.0877ZM121.997 24.6208H126.447V19.5065H121.997V24.6208ZM121.997 18.153H126.447V13.039H121.997V18.153ZM121.997 11.6826H126.447V6.57211H121.997V11.6826ZM128.776 69.8951H133.226V64.7846H128.776V69.8951ZM128.776 63.4279H133.226V58.3141H128.776V63.4279ZM128.776 56.961H133.226V51.847H128.776V56.961ZM128.776 50.4932H133.226V45.3795H128.776V50.4932ZM128.776 44.0227H133.226V38.9123H128.776V44.0227ZM128.776 37.5549H133.226V32.4445H128.776V37.5549ZM128.776 31.0877H133.226V25.9737H128.776V31.0877ZM128.776 24.6208H133.226V19.5065H128.776V24.6208ZM128.776 18.153H133.226V13.039H128.776V18.153ZM128.776 11.6826H133.226V6.57211H128.776V11.6826ZM128.776 5.21537H133.226V0.104919H128.776V5.21537ZM135.552 63.4279H140.001V58.3141H135.552V63.4279ZM135.552 56.961H140.001V51.847H135.552V56.961ZM135.552 50.4932H140.001V45.3795H135.552V50.4932ZM135.552 44.0227H140.001V38.9123H135.552V44.0227ZM135.552 37.5549H140.001V32.4445H135.552V37.5549ZM135.552 31.0877H140.001V25.9737H135.552V31.0877ZM135.552 24.6208H140.001V19.5065H135.552V24.6208ZM135.552 18.153H140.001V13.039H135.552V18.153ZM135.552 11.6826H140.001V6.57211H135.552V11.6826ZM142.331 50.4932H146.781V45.3795H142.331V50.4932ZM142.331 44.0227H146.781V38.9123H142.331V44.0227ZM142.331 37.5549H146.781V32.4445H142.331V37.5549ZM142.331 31.0877H146.781V25.9737H142.331V31.0877ZM142.331 24.6208H146.781V19.5065H142.331V24.6208ZM149.107 44.0227H153.557V38.9123H149.107V44.0227ZM149.107 37.5549H153.557V32.4445H149.107V37.5549ZM149.107 31.0877H153.557V25.9737H149.107V31.0877ZM155.886 56.961H160.336V51.847H155.886V56.961ZM155.886 50.4932H160.336V45.3795H155.886V50.4932ZM155.886 44.0227H160.336V38.9123H155.886V44.0227ZM155.886 37.5549H160.336V32.4445H155.886V37.5549ZM155.886 31.0877H160.336V25.9737H155.886V31.0877ZM155.886 24.6208H160.336V19.5065H155.886V24.6208ZM155.886 18.153H160.336V13.039H155.886V18.153ZM162.665 69.8951H167.115V64.7846H162.665V69.8951ZM162.665 63.4279H167.115V58.3141H162.665V63.4279ZM162.665 56.961H167.115V51.847H162.665V56.961ZM162.665 50.4932H167.115V45.3795H162.665V50.4932ZM162.665 44.0227H167.115V38.9123H162.665V44.0227ZM162.665 37.5549H167.115V32.4445H162.665V37.5549ZM162.665 31.0877H167.115V25.9737H162.665V31.0877ZM162.665 24.6208H167.115V19.5065H162.665V24.6208ZM162.665 18.153H167.115V13.039H162.665V18.153ZM162.665 11.6826H167.115V6.57211H162.665V11.6826ZM162.665 5.21537H167.115V0.104919H162.665V5.21537ZM169.441 56.961H173.891V51.847H169.441V56.961ZM169.441 50.4932H173.891V45.3795H169.441V50.4932ZM169.441 44.0227H173.891V38.9123H169.441V44.0227ZM169.441 37.5549H173.891V32.4445H169.441V37.5549ZM169.441 31.0877H173.891V25.9737H169.441V31.0877ZM169.441 24.6208H173.891V19.5065H169.441V24.6208ZM169.441 18.153H173.891V13.039H169.441V18.153ZM176.22 44.0227H180.67V38.9123H176.22V44.0227ZM176.22 37.5549H180.67V32.4445H176.22V37.5549ZM176.22 31.0877H180.67V25.9737H176.22V31.0877ZM182.995 63.4279H187.445V58.3141H182.995V63.4279ZM182.995 56.961H187.445V51.847H182.995V56.961ZM182.995 50.4932H187.445V45.3795H182.995V50.4932ZM182.995 44.0227H187.445V38.9123H182.995V44.0227ZM182.995 37.5549H187.445V32.4445H182.995V37.5549ZM182.995 31.0877H187.445V25.9737H182.995V31.0877ZM182.995 24.6208H187.445V19.5065H182.995V24.6208ZM182.995 18.153H187.445V13.039H182.995V18.153ZM182.995 11.6826H187.445V6.57211H182.995V11.6826ZM189.774 44.0227H194.225V38.9123H189.774V44.0227ZM189.774 37.5549H194.225V32.4445H189.774V37.5549ZM189.774 31.0877H194.225V25.9737H189.774V31.0877Z" fill="#EFAA1A"/>
</svg>
