<svg width="88" height="39" viewBox="0 0 88 39" fill="none" xmlns="http://www.w3.org/2000/svg">
<path d="M38.5967 15.0868C38.5967 17.0053 37.3291 18.1646 35.2418 18.1646H33.03V21.0088H32.1654V11.9969H35.2384C37.3291 11.9969 38.5967 13.1546 38.5967 15.0868ZM37.7321 15.0868C37.7321 13.6441 36.8674 12.8214 35.2211 12.8214H33.03V17.3264H35.2107C36.8605 17.3264 37.7286 16.5038 37.7286 15.0868H37.7321Z" fill="white"/>
<path d="M45.2685 18.6026H40.6944L39.7104 21.0071H38.806L42.5603 11.9952H43.4164L47.169 21.0071H46.2542L45.2685 18.6026ZM44.952 17.8297L42.9823 12.988L41.0126 17.8297H44.952Z" fill="white"/>
<path d="M54.1952 21.0088L52.3172 18.1131C52.0991 18.1392 51.8797 18.1518 51.66 18.1509H49.4586V21.0088H48.5939V11.9969H51.6652C53.7542 11.9969 55.0201 13.1546 55.0201 15.0885C55.0201 16.5055 54.3405 17.4931 53.1438 17.9207L55.1498 21.0123L54.1952 21.0088ZM54.1468 15.0868C54.1468 13.6441 53.2821 12.8214 51.6376 12.8214H49.4586V17.3471H51.6376C53.2804 17.3471 54.1468 16.5038 54.1468 15.0868Z" fill="white"/>
<path d="M58.6033 12.8214H55.7188V11.9969H62.3576V12.8214H59.4714V21.0088H58.6067L58.6033 12.8214Z" fill="white"/>
<path d="M70.6618 11.9969V21.0088H69.9459L64.6766 13.6956V21.0088H63.812V11.9969H64.5279L69.8162 19.3102V11.9969H70.6618Z" fill="white"/>
<path d="M79.2029 20.1861V21.0088H73.3924V11.9969H79.03V12.8214H74.2605V16.0263H78.5112V16.8318H74.2605V20.1793L79.2029 20.1861Z" fill="white"/>
<path d="M86.9036 21.0088L85.0273 18.1131C84.8098 18.1392 84.5909 18.1518 84.3719 18.1509H82.1653V21.0088H81.3006V11.9969H84.3753C86.4626 11.9969 87.7285 13.1546 87.7285 15.0885C87.7285 16.5055 87.0489 17.4931 85.8522 17.9207L87.8582 21.0123L86.9036 21.0088ZM86.8569 15.0868C86.8569 13.6441 85.9922 12.8214 84.3477 12.8214H82.1653V17.3471H84.3477C85.9888 17.3471 86.8569 16.5038 86.8569 15.0868Z" fill="white"/>
<path d="M34.0815 25.6101V28.0542H37.9828V29.7717H34.0815V33.1484H32.1325V23.8926H38.4999V25.6101H34.0815Z" fill="white"/>
<path d="M39.911 23.8926H41.8617V33.1484H39.911V23.8926Z" fill="white"/>
<path d="M51.5874 23.8926V33.1484H49.986L45.7855 27.5337V33.1484H43.8591V23.8926H45.4812L49.6696 29.5089V23.8926H51.5874Z" fill="white"/>
<path d="M59.1324 31.1595H55.2207L54.4736 33.1484H52.4763L56.2324 23.8995H58.1571L61.9253 33.1484H59.8795L59.1324 31.1595ZM58.5185 29.5416L57.1835 26L55.8467 29.5416H58.5185Z" fill="white"/>
<path d="M70.5304 23.8926V33.1484H68.929L64.7285 27.5269V33.1484H62.8021V23.8926H64.4155L68.6039 29.5089V23.8926H70.5304Z" fill="white"/>
<path d="M71.9986 28.511C71.9986 25.7218 73.9475 23.7277 76.5726 23.7277C78.0287 23.7277 79.2444 24.3082 80.0313 25.3662L78.7793 26.6338C78.2138 25.921 77.5047 25.55 76.6608 25.55C75.0837 25.55 73.9648 26.766 73.9648 28.511C73.9648 30.2561 75.0837 31.4704 76.6608 31.4704C77.5047 31.4704 78.2172 31.1011 78.7793 30.3729L80.0313 31.6421C79.2375 32.7121 78.0218 33.2944 76.5536 33.2944C73.9475 33.3012 71.9986 31.3055 71.9986 28.511Z" fill="white"/>
<path d="M87.8738 31.4308V33.1484H81.349V23.8926H87.9205V25.6101H83.2876V27.6196H87.1993V29.2839H83.2876V31.4308H87.8738Z" fill="white"/>
<path d="M25.6528 13.7471L0 28.9988L6.18233 17.9259L25.6528 13.7471Z" fill="white"/>
<path d="M25.6528 13.7471L12.6811 28.432L0 28.9988L25.6528 13.7471Z" fill="white"/>
<path d="M25.6493 12.5689L1.80714 3.58966L6.18405 16.7477L25.6493 12.5689Z" fill="white"/>
<path d="M25.67 0L26.7007 11.9867L17.4333 8.33347L25.67 0Z" fill="white"/>
<path d="M26.7007 14.3002L25.6701 39L13.7412 28.9662L26.7007 14.3002Z" fill="white"/>
<path d="M33.9967 36.3842C34.1757 36.5749 34.2752 36.8259 34.2752 37.0866C34.2752 37.3473 34.1757 37.5984 33.9967 37.7891C33.7847 37.9689 33.5107 38.06 33.2324 38.0433H32.5406V38.9278H32.2709V36.1283H33.2255C33.5064 36.1095 33.7835 36.2014 33.9967 36.3842ZM33.8048 37.6019C33.9324 37.4602 34.0029 37.2767 34.0029 37.0866C34.0029 36.8965 33.9324 36.7131 33.8048 36.5714C33.6419 36.4398 33.4348 36.3748 33.2255 36.3893H32.5476V37.7857H33.2255C33.435 37.7991 33.6419 37.7334 33.8048 37.6019Z" fill="white"/>
<path d="M36.5994 38.9278L36.0166 38.0279C35.9489 38.0363 35.8807 38.0403 35.8125 38.0399H35.1208V38.9278H34.851V36.1283H35.8056C36.0847 36.1116 36.3595 36.2034 36.5717 36.3842C36.6653 36.4751 36.7384 36.5848 36.7861 36.7059C36.8338 36.827 36.8551 36.9568 36.8484 37.0867C36.8553 37.2826 36.8022 37.476 36.6962 37.6414C36.593 37.7945 36.4415 37.9093 36.2656 37.9677L36.8882 38.9278H36.5994ZM36.3849 37.6036C36.5122 37.4618 36.5825 37.2784 36.5825 37.0884C36.5825 36.8984 36.5122 36.715 36.3849 36.5731C36.2221 36.4416 36.015 36.3765 35.8056 36.3911H35.1277V37.7857H35.8056C36.015 37.8003 36.2221 37.7352 36.3849 37.6036Z" fill="white"/>
<path d="M37.9206 38.7664C37.7161 38.6412 37.5499 38.4631 37.4398 38.2512C37.3261 38.025 37.2669 37.7757 37.2669 37.5229C37.2669 37.2701 37.3261 37.0208 37.4398 36.7947C37.5516 36.5843 37.7198 36.4087 37.9258 36.2875C38.1318 36.1662 38.3676 36.104 38.6071 36.1077C38.8477 36.1036 39.0846 36.1673 39.2902 36.2914C39.4953 36.4158 39.6617 36.5941 39.7709 36.8067C39.8857 37.0331 39.9455 37.2831 39.9455 37.5367C39.9455 37.7902 39.8857 38.0402 39.7709 38.2666C39.6607 38.4785 39.4946 38.6566 39.2902 38.7819C39.0825 38.9028 38.8461 38.9665 38.6054 38.9665C38.3646 38.9665 38.1282 38.9028 37.9206 38.7819V38.7664ZM39.1536 38.538C39.318 38.4376 39.4509 38.2936 39.5375 38.1223C39.6285 37.9373 39.6759 37.734 39.6759 37.5281C39.6759 37.3221 39.6285 37.1189 39.5375 36.9338C39.4509 36.7625 39.318 36.6186 39.1536 36.5182C38.9898 36.4167 38.8001 36.3642 38.6071 36.367C38.4136 36.3647 38.2235 36.4171 38.0589 36.5182C37.8943 36.6188 37.7608 36.7626 37.6733 36.9338C37.5811 37.1185 37.5331 37.3219 37.5331 37.5281C37.5331 37.7342 37.5811 37.9376 37.6733 38.1223C37.7608 38.2935 37.8943 38.4373 38.0589 38.538C38.2241 38.6375 38.4139 38.6893 38.6071 38.6874C38.7998 38.6899 38.9893 38.6381 39.1536 38.538Z" fill="white"/>
<path d="M40.7082 38.8523C40.5541 38.7983 40.4157 38.7074 40.3053 38.5878L40.4108 38.3594C40.5137 38.4674 40.6395 38.5513 40.7791 38.605C40.9292 38.6675 41.0903 38.6996 41.253 38.6994C41.4365 38.7129 41.6193 38.6645 41.7718 38.562C41.8266 38.5195 41.8707 38.465 41.9007 38.4027C41.9307 38.3404 41.9458 38.2721 41.9447 38.2031C41.9496 38.1051 41.9161 38.0091 41.8513 37.9351C41.7873 37.8684 41.7094 37.8162 41.623 37.7823C41.5004 37.7356 41.3751 37.696 41.2478 37.6638C41.0912 37.6223 40.9375 37.5707 40.7878 37.5092C40.6731 37.4593 40.5727 37.382 40.4955 37.2842C40.4083 37.1648 40.3649 37.0193 40.3727 36.872C40.3714 36.7364 40.4066 36.603 40.4748 36.4855C40.5495 36.3644 40.6583 36.2676 40.7878 36.2073C40.9507 36.1348 41.1281 36.0995 41.3066 36.1042C41.4521 36.1037 41.5968 36.1257 41.7354 36.1695C41.8654 36.2096 41.9876 36.2711 42.0969 36.3516L42.0069 36.5869C41.9016 36.5117 41.7848 36.4537 41.6611 36.4151C41.546 36.3778 41.4259 36.3581 41.3048 36.3567C41.1249 36.3438 40.9461 36.3943 40.7999 36.4993C40.7448 36.5431 40.7006 36.5988 40.6707 36.6622C40.6407 36.7257 40.6257 36.7951 40.6269 36.8651C40.622 36.9636 40.6554 37.0602 40.7203 37.1348C40.7846 37.2045 40.8646 37.2581 40.9538 37.291C41.0773 37.3369 41.2032 37.3764 41.3308 37.4096C41.4849 37.4494 41.6363 37.4994 41.7839 37.559C41.8993 37.6084 42.0004 37.6857 42.0779 37.784C42.163 37.9016 42.2051 38.0446 42.1972 38.1893C42.1985 38.3251 42.1626 38.4587 42.0934 38.5758C42.0179 38.6973 41.9069 38.7931 41.7752 38.8506C41.6089 38.924 41.428 38.9592 41.246 38.9536C41.0621 38.9521 40.8799 38.9178 40.7082 38.8523Z" fill="white"/>
<path d="M44.511 36.3842C44.6899 36.575 44.7894 36.826 44.7894 37.0867C44.7894 37.3474 44.6899 37.5984 44.511 37.7891C44.3003 37.9676 44.0284 38.0587 43.7518 38.0433H43.0601V38.9279H42.7903V36.1283H43.7518C44.0287 36.1127 44.3009 36.2044 44.511 36.3842ZM44.3191 37.6019C44.4467 37.4602 44.5172 37.2768 44.5172 37.0867C44.5172 36.8966 44.4467 36.7131 44.3191 36.5714C44.1561 36.44 43.9491 36.375 43.7397 36.3894H43.0601V37.7857H43.738C43.9481 37.7992 44.1555 37.7336 44.3191 37.6019Z" fill="white"/>
<path d="M47.1759 38.672V38.9279H45.3722V36.1283H47.1206V36.3842H45.642V37.3804H46.9615V37.6311H45.642V38.672H47.1759Z" fill="white"/>
<path d="M49.552 38.9278L48.9692 38.0279C48.9015 38.0363 48.8334 38.0403 48.7651 38.0399H48.0734V38.9278H47.8036V36.1283H48.7669C49.0455 36.1113 49.3198 36.2032 49.5312 36.3842C49.6252 36.4748 49.6986 36.5844 49.7463 36.7056C49.794 36.8268 49.815 36.9567 49.8079 37.0867C49.8144 37.2823 49.7621 37.4755 49.6575 37.6414C49.554 37.795 49.4018 37.9098 49.2251 37.9677L49.8494 38.9278H49.552ZM49.3376 37.6036C49.4648 37.4618 49.5351 37.2784 49.5351 37.0884C49.5351 36.8984 49.4648 36.715 49.3376 36.5731C49.1746 36.4417 48.9676 36.3767 48.7582 36.3911H48.0751V37.7857H48.7669C48.9733 37.7977 49.1768 37.7328 49.3376 37.6036Z" fill="white"/>
<path d="M50.4443 36.1283H50.7141V38.9279H50.4443V36.1283Z" fill="white"/>
<path d="M52.0405 36.3842H51.1447V36.1283H53.2078V36.3842H52.3103V38.9279H52.0405V36.3842Z" fill="white"/>
<path d="M54.4944 37.9575V38.9262H54.2281V37.9575L53.2078 36.1266H53.4948L54.3699 37.6981L55.2449 36.1266H55.5112L54.4944 37.9575Z" fill="white"/>
<path d="M56.8947 36.1283H57.1645V38.9279H56.8947V36.1283Z" fill="white"/>
<path d="M60.1199 36.1283V38.9279H59.8985L58.2591 36.6556V38.9279H57.9876V36.1283H58.2107L59.8553 38.3989V36.1283H60.1199Z" fill="white"/>
<path d="M63.6269 36.3842C63.8059 36.575 63.9054 36.826 63.9054 37.0867C63.9054 37.3474 63.8059 37.5984 63.6269 37.7892C63.4141 37.9689 63.1397 38.06 62.8608 38.0434H62.1691V38.9279H61.9097V36.1283H62.8643C63.1423 36.1124 63.4157 36.2041 63.6269 36.3842ZM63.4332 37.6019C63.5609 37.4602 63.6314 37.2768 63.6314 37.0867C63.6314 36.8966 63.5609 36.7131 63.4332 36.5714C63.2704 36.4399 63.0633 36.3748 62.8539 36.3894H62.176V37.7857H62.8539C63.0634 37.7991 63.2703 37.7335 63.4332 37.6019Z" fill="white"/>
<path d="M65.9598 38.179H64.5383L64.2322 38.9279H63.9503L65.1176 36.1283H65.3839L66.5495 38.9279H66.2659L65.9598 38.179ZM65.8595 37.9403L65.249 36.4357L64.6351 37.9403H65.8595Z" fill="white"/>
<path d="M68.7146 38.9279L68.1353 38.0279C68.0682 38.0363 68.0006 38.0404 67.933 38.0399H67.2412V38.9279H66.9715V36.1283H67.9278C68.2064 36.1117 68.4805 36.2035 68.6921 36.3842C68.7861 36.4749 68.8594 36.5845 68.9072 36.7057C68.9549 36.8268 68.9759 36.9568 68.9688 37.0867C68.9753 37.2824 68.923 37.4755 68.8184 37.6415C68.7141 37.7943 68.5622 37.9089 68.386 37.9678L69.0086 38.9279H68.7146ZM68.4984 37.6037C68.6257 37.4618 68.696 37.2784 68.696 37.0884C68.696 36.8984 68.6257 36.715 68.4984 36.5732C68.3356 36.4416 68.1285 36.3765 67.9191 36.3911H67.2412V37.7857H67.9191C68.1285 37.8003 68.3356 37.7352 68.4984 37.6037Z" fill="white"/>
<path d="M70.0669 36.3842H69.1729V36.1283H71.236V36.3842H70.3402V38.9279H70.0704L70.0669 36.3842Z" fill="white"/>
<path d="M73.7936 36.1283V38.9279H73.5723L71.9398 36.6556V38.9279H71.6631V36.1283H71.8845L73.529 38.3989V36.1283H73.7936Z" fill="white"/>
<path d="M76.436 38.672V38.9279H74.6254V36.1283H76.3738V36.3842H74.8952V37.3804H76.2147V37.6311H74.8952V38.672H76.436Z" fill="white"/>
<path d="M78.8052 38.9278L78.2224 38.0279C78.1547 38.0363 78.0866 38.0403 78.0184 38.0399H77.3266V38.9278H77.0569V36.1283H78.0114C78.2901 36.1113 78.5644 36.2032 78.7758 36.3842C78.8698 36.4748 78.9431 36.5844 78.9909 36.7056C79.0386 36.8268 79.0596 36.9567 79.0525 37.0867C79.059 37.2823 79.0066 37.4755 78.902 37.6414C78.7986 37.795 78.6464 37.9098 78.4697 37.9677L79.094 38.9278H78.8052ZM78.5908 37.6036C78.718 37.4618 78.7883 37.2784 78.7883 37.0884C78.7883 36.8984 78.718 36.715 78.5908 36.5731C78.4278 36.4417 78.2208 36.3767 78.0114 36.3911H77.3335V37.7857H78.0114C78.2208 37.7999 78.4278 37.7349 78.5908 37.6036Z" fill="white"/>
<path d="M79.8566 38.8523C79.7025 38.7983 79.5641 38.7074 79.4537 38.5878L79.5592 38.3593C79.6621 38.4674 79.7879 38.5513 79.9275 38.6049C80.0776 38.6675 80.2387 38.6996 80.4014 38.6994C80.585 38.7136 80.768 38.6651 80.9202 38.562C80.9753 38.5198 81.0196 38.4653 81.0497 38.403C81.0797 38.3406 81.0946 38.2721 81.0931 38.203C81.0978 38.1054 81.065 38.0097 81.0014 37.9351C80.933 37.8679 80.8503 37.8168 80.7593 37.7857C80.6367 37.739 80.5114 37.6995 80.3841 37.6672C80.2274 37.626 80.0737 37.5744 79.9241 37.5126C79.8094 37.4627 79.709 37.3854 79.6318 37.2876C79.5446 37.1682 79.5012 37.0227 79.509 36.8754C79.5077 36.7398 79.5429 36.6064 79.6111 36.4889C79.6853 36.3674 79.7943 36.2705 79.9241 36.2107C80.0871 36.1382 80.2644 36.103 80.4429 36.1077C80.5878 36.1071 80.732 36.1291 80.87 36.1729C81.0007 36.2125 81.1235 36.2741 81.2332 36.355L81.1415 36.5903C81.0362 36.515 80.9195 36.457 80.7957 36.4185C80.6806 36.3812 80.5605 36.3615 80.4394 36.3601C80.2595 36.3472 80.0807 36.3977 79.9345 36.5027C79.8794 36.5465 79.8352 36.6022 79.8052 36.6657C79.7752 36.7291 79.7603 36.7985 79.7615 36.8685C79.7565 36.967 79.79 37.0636 79.8549 37.1382C79.9185 37.2087 79.9987 37.2624 80.0884 37.2945C80.2119 37.3403 80.3377 37.3799 80.4654 37.413C80.6195 37.4529 80.7709 37.5028 80.9184 37.5624C81.0339 37.6118 81.1349 37.6891 81.2124 37.7874C81.2976 37.9051 81.3397 38.0481 81.3317 38.1927C81.3331 38.3285 81.2972 38.4621 81.228 38.5792C81.1524 38.7007 81.0415 38.7966 80.9098 38.854C80.7434 38.9274 80.5626 38.9626 80.3806 38.957C80.2011 38.953 80.0237 38.9175 79.8566 38.8523Z" fill="white"/>
<path d="M84.071 36.1283V38.9279H83.8064V37.6363H82.2085V38.9279H81.9387V36.1283H82.2085V37.3752H83.8064V36.1283H84.071Z" fill="white"/>
<path d="M84.9097 36.1283H85.1795V38.9279H84.9097V36.1283Z" fill="white"/>
<path d="M87.7233 36.3842C87.9022 36.575 88.0017 36.826 88.0017 37.0867C88.0017 37.3474 87.9022 37.5984 87.7233 37.7891C87.5105 37.9689 87.236 38.0599 86.9572 38.0433H86.2655V38.9279H85.9957V36.1283H86.9503C87.2318 36.1096 87.5094 36.2015 87.7233 36.3842ZM87.5296 37.6019C87.6572 37.4602 87.7278 37.2768 87.7278 37.0867C87.7278 36.8966 87.6572 36.7131 87.5296 36.5714C87.3668 36.4399 87.1597 36.3748 86.9503 36.3894H86.2724V37.7857H86.9503C87.1598 37.7991 87.3667 37.7335 87.5296 37.6019Z" fill="white"/>
</svg>
